# xmcd
#
# Track frame offsets:
#	150
#	23331
#	41540
#	62276
#	80721
#	102694
#	125235
#	142466
#	165455
#
# Disc length: 2524 seconds
#
# Revision: 1
# Processed by: cddbd v1.5.2PL0 Copyright (c) Steve Scherf et al.
# Submitted via: dBpowerAMP V4.0
#
DISCID=7b09da09
DTITLE=J. Tillman - Minor Works
DYEAR=2006
DGENRE=Americana
TTITLE0=Darling Night
TTITLE1=Jesse's Not a Sleeper
TTITLE2=Crooked Roof
TTITLE3=Wiuth Wolves
TTITLE4=Minor Works
TTITLE5=For An Hour wth You
TTITLE6=Take Care
TTITLE7=Restlessness
TTITLE8=Now You're Among Strangers
EXTD=
EXTT0=
EXTT1=
EXTT2=
EXTT3=
EXTT4=
EXTT5=
EXTT6=
EXTT7=
EXTT8=
PLAYORDER=
